<?xml version="1.0" encoding="UTF-8"?>
<svg width="40" height="40" viewBox="0 0 40 40" fill="none" xmlns="http://www.w3.org/2000/svg">
    <circle cx="20" cy="20" r="16" stroke="#B06542" stroke-width="2"/>
    <path d="M14 20C14 19.4477 14.4477 19 15 19H25C25.5523 19 26 19.4477 26 20C26 20.5523 25.5523 21 25 21H15C14.4477 21 14 20.5523 14 20Z" fill="#B06542"/>
    <path d="M18 15C18 14.4477 18.4477 14 19 14H21C21.5523 14 22 14.4477 22 15C22 15.5523 21.5523 16 21 16H19C18.4477 16 18 15.5523 18 15Z" fill="#B06542"/>
    <path d="M16 25C16 24.4477 16.4477 24 17 24H23C23.5523 24 24 24.4477 24 25C24 25.5523 23.5523 26 23 26H17C16.4477 26 16 25.5523 16 25Z" fill="#B06542"/>
</svg> 